<?xml version="1.0" encoding="UTF-8"?>
<svg width="290" height="76" viewBox="0 0 290 76" fill="none" xmlns="http://www.w3.org/2000/svg">
<path fill-rule="evenodd" clip-rule="evenodd" d="M273.559 66.583C280.142 55.248 280.69 40.7967 273.743 28.583C266.796 16.3693 254.118 9.49294 241.045 9.41706C234.462 20.752 233.914 35.2034 240.861 47.4171C247.808 59.6308 260.486 66.5071 273.559 66.583Z" fill="#1FF542"/>
<path d="M261.623 34.6507L259.475 28.9723C262.49 27.6874 267.901 26.8585 273.022 26.8585C281.613 26.8585 287.313 30.3401 287.313 35.5626V51.8102H280.374L279.713 50.3181C275.914 51.5615 271.122 52.3905 267.736 52.3905C261.086 52.3905 256.667 49.4891 256.667 45.0956V44.5983C256.667 40.7436 262.325 37.635 270.627 36.806C275.583 36.3086 278.887 35.5211 278.887 34.8165V34.6507C278.887 33.6974 276.492 33.0757 272.94 33.0757C268.933 33.0757 264.39 33.6974 261.623 34.6507ZM278.887 45.0956V40.7021C278.598 41.0337 275.583 41.5311 271.288 41.987C267.57 42.4015 265.092 43.2719 265.092 44.1838V44.6397C265.092 45.593 266.62 46.2147 268.892 46.2147C271.536 46.2147 275.542 45.7588 278.887 45.0956Z" fill="#1E1E1E"/>
<path d="M244.115 43.0232V27.6874H252.541V51.8102H245.354L244.817 48.9917C242.793 50.6911 239.283 52.2247 235.194 52.2247C229.535 52.2247 223.051 49.2819 223.051 42.2771V27.6874H231.476V40.8679C231.476 44.4739 234.037 45.9246 237.465 45.9246C240.026 45.9246 242.133 45.0956 243.785 43.3962L244.115 43.0232Z" fill="#1E1E1E"/>
<path d="M208.749 52.2247V43.7693H217.176V52.2247H208.749Z" fill="#1FF542"/>
<path d="M188.436 26.9413C197.688 26.9413 203.883 32.3296 203.883 40.3705V42.1113H180.712C181.249 44.5982 184.553 46.2561 189.014 46.2561C192.649 46.2561 197.44 45.593 201.033 44.5568L203.016 49.945C199.34 51.5615 193.351 52.6392 188.064 52.6392C178.606 52.6392 172.286 47.4996 172.286 39.7902C172.286 32.0809 178.73 26.9413 188.436 26.9413ZM188.188 32.7026C184.016 32.7026 180.96 34.402 180.547 36.9718H195.746C195.292 34.402 192.277 32.7026 188.188 32.7026Z" fill="#1FF542"/>
<path d="M153.708 26.9413C162.959 26.9413 169.155 32.3296 169.155 40.3705V42.1113H145.984C146.521 44.5982 149.825 46.2561 154.286 46.2561C157.921 46.2561 162.712 45.593 166.305 44.5568L168.287 49.945C164.612 51.5615 158.623 52.6392 153.336 52.6392C143.878 52.6392 137.558 47.4996 137.558 39.7902C137.558 32.0809 144.001 26.9413 153.708 26.9413ZM153.46 32.7026C149.288 32.7026 146.232 34.402 145.819 36.9718H161.018C160.564 34.402 157.549 32.7026 153.46 32.7026Z" fill="#1FF542"/>
<path d="M121.093 26.8585C126.958 26.8585 133.401 29.8427 133.401 36.806V51.8102H124.975V38.4639C124.975 34.3606 122.001 33.2415 119.028 33.2415C116.425 33.2415 114.319 34.0704 112.667 35.7284L112.337 36.1014C112.378 36.3086 112.378 36.5573 112.378 36.806V51.8102H103.952V38.4639C103.952 34.3606 100.978 33.2415 97.9632 33.2415C95.4024 33.2415 93.296 34.0704 91.6439 35.7284L91.3134 36.1014V51.8102H82.8877V27.6874H90.0744L90.6526 30.5888C92.5112 28.4749 96.2285 26.8585 100.317 26.8585C103.869 26.8585 107.793 28.1019 110.189 30.7546C112.873 28.4335 116.839 26.8585 121.093 26.8585Z" fill="#1FF542"/>
<path d="M69.3353 51.8102V20.7241H77.7616V51.8102H69.3353Z" fill="#1FF542"/>
<path d="M49.7652 26.9413C59.017 26.9413 65.2124 32.3296 65.2124 40.3705V42.1113H42.0416C42.5785 44.5982 45.8827 46.2561 50.3434 46.2561C53.9781 46.2561 58.7692 45.593 62.3625 44.5568L64.345 49.945C60.6691 51.5615 54.6802 52.6392 49.3935 52.6392C39.9352 52.6392 33.6158 47.4996 33.6158 39.7902C33.6158 32.0809 40.0591 26.9413 49.7652 26.9413ZM49.5174 32.7026C45.3458 32.7026 42.2894 34.402 41.8764 36.9718H57.0758C56.6214 34.402 53.6063 32.7026 49.5174 32.7026Z" fill="#1FF542"/>
<path d="M17.1819 26.8584C23.0056 26.8584 29.4901 29.8427 29.4901 36.806V51.8102H21.0644V38.4639C21.0644 34.5678 18.0493 33.4073 14.9929 33.4073C12.3495 33.4073 10.2844 34.1948 8.75617 35.7283L8.42575 36.1014V51.8102H0V20.7241H8.42575V30.3815C9.95395 28.3506 13.0517 26.8584 17.1819 26.8584Z" fill="#1FF542"/>
</svg>
